<?xml version="1.0" encoding="UTF-8"?><!DOCTYPE svg PUBLIC "-//W3C//DTD SVG 1.1//EN" "http://www.w3.org/Graphics/SVG/1.1/DTD/svg11.dtd"><svg xmlns="http://www.w3.org/2000/svg" xmlns:xlink="http://www.w3.org/1999/xlink"><defs/><symbol id="apple" viewBox="0 0 24 30">
<path d="M19.9108 15.8985C19.9251 14.7926 20.2197 13.7083 20.7671 12.7464C21.3146 11.7845 22.0972 10.9763 23.042 10.3971C22.4418 9.54225 21.6499 8.83875 20.7294 8.34247C19.8088 7.84619 18.7849 7.5708 17.7389 7.53817C15.5077 7.30462 13.3446 8.86956 12.2076 8.86956C11.0486 8.86956 9.298 7.56135 7.41291 7.60003C6.19358 7.63931 5.00525 7.99289 3.9637 8.62632C2.92215 9.25974 2.0629 10.1514 1.46967 11.2144C-1.10006 15.6511 0.816727 22.1715 3.27832 25.7577C4.50991 27.5138 5.94928 29.4754 7.83266 29.4058C9.67567 29.3296 10.364 28.2339 12.5887 28.2339C14.7927 28.2339 15.4385 29.4058 17.3601 29.3616C19.3377 29.3296 20.5837 27.5977 21.7721 25.825C22.657 24.5737 23.3379 23.1908 23.7896 21.7274C22.6407 21.2428 21.6602 20.4317 20.9704 19.3952C20.2807 18.3586 19.9121 17.1425 19.9108 15.8985Z" fill="currentColor"/>
<path d="M16.2816 5.17962C17.3599 3.8888 17.8911 2.22967 17.7625 0.554565C16.1151 0.727107 14.5934 1.51224 13.5005 2.75354C12.9662 3.35995 12.5569 4.06542 12.2962 4.82964C12.0354 5.59386 11.9283 6.40183 11.9808 7.20737C12.8048 7.21583 13.62 7.03773 14.365 6.68649C15.1099 6.33525 15.7652 5.82003 16.2816 5.17962Z" fill="currentColor"/>
</symbol><symbol id="chart" viewBox="0 0 28 28">
<path d="M0 1.71875C0 1.4784 0.0954797 1.24789 0.265435 1.07793C0.435389 0.90798 0.665898 0.8125 0.90625 0.8125H3.625C3.82715 0.812556 4.02348 0.880198 4.18276 1.00467C4.34205 1.12914 4.45514 1.3033 4.50406 1.49944L5.23813 4.4375H26.2812C26.4143 4.43762 26.5457 4.46705 26.6661 4.52369C26.7866 4.58032 26.893 4.66278 26.978 4.76521C27.0629 4.86763 27.1243 4.9875 27.1577 5.11631C27.1911 5.24512 27.1957 5.3797 27.1712 5.5105L24.4524 20.0105C24.4136 20.2182 24.3034 20.4057 24.1409 20.5408C23.9784 20.6758 23.7738 20.7498 23.5625 20.75H7.25C7.03872 20.7498 6.83415 20.6758 6.67165 20.5408C6.50915 20.4057 6.39894 20.2182 6.36006 20.0105L3.64313 5.53769L2.91812 2.625H0.90625C0.665898 2.625 0.435389 2.52952 0.265435 2.35957C0.0954797 2.18961 0 1.9591 0 1.71875ZM5.62238 6.25L8.00219 18.9375H22.8103L25.1901 6.25H5.62238ZM9.0625 20.75C8.10109 20.75 7.17906 21.1319 6.49924 21.8117C5.81942 22.4916 5.4375 23.4136 5.4375 24.375C5.4375 25.3364 5.81942 26.2584 6.49924 26.9383C7.17906 27.6181 8.10109 28 9.0625 28C10.0239 28 10.9459 27.6181 11.6258 26.9383C12.3056 26.2584 12.6875 25.3364 12.6875 24.375C12.6875 23.4136 12.3056 22.4916 11.6258 21.8117C10.9459 21.1319 10.0239 20.75 9.0625 20.75ZM21.75 20.75C20.7886 20.75 19.8666 21.1319 19.1867 21.8117C18.5069 22.4916 18.125 23.4136 18.125 24.375C18.125 25.3364 18.5069 26.2584 19.1867 26.9383C19.8666 27.6181 20.7886 28 21.75 28C22.7114 28 23.6334 27.6181 24.3133 26.9383C24.9931 26.2584 25.375 25.3364 25.375 24.375C25.375 23.4136 24.9931 22.4916 24.3133 21.8117C23.6334 21.1319 22.7114 20.75 21.75 20.75ZM9.0625 22.5625C9.54321 22.5625 10.0042 22.7535 10.3441 23.0934C10.684 23.4333 10.875 23.8943 10.875 24.375C10.875 24.8557 10.684 25.3167 10.3441 25.6566C10.0042 25.9965 9.54321 26.1875 9.0625 26.1875C8.58179 26.1875 8.12078 25.9965 7.78087 25.6566C7.44096 25.3167 7.25 24.8557 7.25 24.375C7.25 23.8943 7.44096 23.4333 7.78087 23.0934C8.12078 22.7535 8.58179 22.5625 9.0625 22.5625ZM21.75 22.5625C22.2307 22.5625 22.6917 22.7535 23.0316 23.0934C23.3715 23.4333 23.5625 23.8943 23.5625 24.375C23.5625 24.8557 23.3715 25.3167 23.0316 25.6566C22.6917 25.9965 22.2307 26.1875 21.75 26.1875C21.2693 26.1875 20.8083 25.9965 20.4684 25.6566C20.1285 25.3167 19.9375 24.8557 19.9375 24.375C19.9375 23.8943 20.1285 23.4333 20.4684 23.0934C20.8083 22.7535 21.2693 22.5625 21.75 22.5625Z" fill="currentColor"/>
</symbol><symbol id="close" viewBox="0 0 20 20">
<path d="M10 0.833374C4.93087 0.833374 0.833374 4.93087 0.833374 10C0.833374 15.0692 4.93087 19.1667 10 19.1667C15.0692 19.1667 19.1667 15.0692 19.1667 10C19.1667 4.93087 15.0692 0.833374 10 0.833374ZM13.9325 12.6492C14.0174 12.7341 14.0847 12.8348 14.1307 12.9457C14.1766 13.0566 14.2002 13.1754 14.2002 13.2955C14.2002 13.4155 14.1766 13.5343 14.1307 13.6452C14.0847 13.7561 14.0174 13.8568 13.9325 13.9417C13.8477 14.0266 13.7469 14.0939 13.636 14.1398C13.5252 14.1858 13.4063 14.2094 13.2863 14.2094C13.1663 14.2094 13.0474 14.1858 12.9365 14.1398C12.8257 14.0939 12.7249 14.0266 12.64 13.9417L10 11.2925L7.35087 13.9417C7.17948 14.1131 6.94701 14.2094 6.70462 14.2094C6.46223 14.2094 6.22977 14.1131 6.05837 13.9417C5.88698 13.7703 5.79069 13.5378 5.79069 13.2955C5.79069 13.1754 5.81433 13.0566 5.86026 12.9457C5.90619 12.8348 5.97351 12.7341 6.05837 12.6492L8.70754 10L6.06754 7.35087C5.98267 7.26601 5.91535 7.16526 5.86942 7.05437C5.82349 6.94349 5.79986 6.82464 5.79986 6.70462C5.79986 6.46223 5.89614 6.22977 6.06754 6.05837C6.23894 5.88698 6.4714 5.79069 6.71379 5.79069C6.95618 5.79069 7.18864 5.88698 7.36004 6.05837L10 8.70754L12.6492 6.05837C12.7341 5.97351 12.8348 5.90619 12.9457 5.86026C13.0566 5.81433 13.1754 5.79069 13.2955 5.79069C13.4155 5.79069 13.5343 5.81433 13.6452 5.86026C13.7561 5.90619 13.8568 5.97351 13.9417 6.05837C14.0266 6.14324 14.0939 6.24399 14.1398 6.35488C14.1858 6.46576 14.2094 6.5846 14.2094 6.70462C14.2094 6.82464 14.1858 6.94349 14.1398 7.05437C14.0939 7.16526 14.0266 7.26601 13.9417 7.35087L11.2925 10L13.9325 12.6492Z" fill="currentColor"/>
</symbol><symbol id="facebook" viewBox="0 0 35 35">
<path d="M34.2969 17.5C34.2969 14.178 33.3118 10.9305 31.4662 8.16836C29.6206 5.40616 26.9974 3.25327 23.9283 1.9819C20.8592 0.710525 17.482 0.377783 14.2238 1.02574C10.9656 1.67371 7.97264 3.27327 5.62348 5.62217C3.27433 7.97107 1.67443 10.9638 1.02611 14.222C0.377793 17.4801 0.710164 20.8574 1.9812 23.9266C3.25223 26.9959 5.40484 29.6193 8.16683 31.4652C10.9288 33.3111 14.1761 34.2965 17.4982 34.2969L17.5 34.2971L17.5019 34.2969C21.9548 34.2914 26.2238 32.5199 29.3723 29.371C32.5208 26.2221 34.2919 21.953 34.2969 17.5ZM18.1719 32.9377V20.8594H22.875C23.0532 20.8594 23.2241 20.7886 23.3501 20.6626C23.4761 20.5366 23.5469 20.3657 23.5469 20.1875C23.5469 20.0093 23.4761 19.8384 23.3501 19.7124C23.2241 19.5864 23.0532 19.5156 22.875 19.5156H18.1719V14.8125C18.1729 13.9218 18.5271 13.0679 19.1569 12.4382C19.7867 11.8084 20.6406 11.4541 21.5313 11.4531H24.2188C24.397 11.4531 24.5679 11.3823 24.6939 11.2563C24.8199 11.1303 24.8906 10.9594 24.8906 10.7813C24.8906 10.6031 24.8199 10.4322 24.6939 10.3062C24.5679 10.1802 24.397 10.1094 24.2188 10.1094H21.5313C20.2843 10.1108 19.0889 10.6067 18.2072 11.4884C17.3255 12.3701 16.8295 13.5656 16.8281 14.8125V19.5156H12.125C11.9468 19.5156 11.7759 19.5864 11.6499 19.7124C11.5239 19.8384 11.4531 20.0093 11.4531 20.1875C11.4531 20.3657 11.5239 20.5366 11.6499 20.6626C11.7759 20.7886 11.9468 20.8594 12.125 20.8594H16.8281V32.9375C12.7917 32.7618 8.98464 31.0124 6.22245 28.0638C3.46027 25.1153 1.96269 21.2023 2.05054 17.163C2.1384 13.1237 3.80469 9.27947 6.69246 6.45383C9.58023 3.62818 13.4598 2.04587 17.5 2.04587C21.5402 2.04587 25.4198 3.62818 28.3076 6.45383C31.1953 9.27947 32.8616 13.1237 32.9495 17.163C33.0373 21.2023 31.5398 25.1153 28.7776 28.0638C26.0154 31.0124 22.2083 32.7618 18.1719 32.9375V32.9377Z" fill="currentColor"/>
</symbol><symbol id="google" viewBox="0 0 48 48"><path fill="currentColor" d="M7.705,4.043C7.292,4.15,7,4.507,7,5.121c0,1.802,0,18.795,0,18.795S7,42.28,7,43.091c0,0.446,0.197,0.745,0.5,0.856l20.181-20.064L7.705,4.043z"/><path fill="currentColor" d="M33.237,18.36l-8.307-4.796c0,0-15.245-8.803-16.141-9.32C8.401,4.02,8.019,3.961,7.705,4.043l19.977,19.84L33.237,18.36z"/><path fill="currentColor" d="M8.417,43.802c0.532-0.308,15.284-8.825,24.865-14.357l-5.601-5.562L7.5,43.947C7.748,44.038,8.066,44.004,8.417,43.802z"/><path fill="currentColor" d="M41.398,23.071c-0.796-0.429-8.1-4.676-8.1-4.676l-0.061-0.035l-5.556,5.523l5.601,5.562c4.432-2.559,7.761-4.48,8.059-4.653C42.285,24.248,42.194,23.5,41.398,23.071z"/></symbol><symbol id="instagram" viewBox="0 0 33 33">
<path d="M16.5 9.10938C15.0383 9.10938 13.6094 9.54283 12.394 10.3549C11.1786 11.167 10.2313 12.3213 9.67195 13.6717C9.11257 15.0222 8.96622 16.5082 9.25138 17.9418C9.53655 19.3755 10.2404 20.6924 11.274 21.726C12.3076 22.7596 13.6245 23.4634 15.0582 23.7486C16.4918 24.0338 17.9778 23.8874 19.3283 23.328C20.6787 22.7687 21.833 21.8214 22.6451 20.606C23.4572 19.3906 23.8906 17.9617 23.8906 16.5C23.8884 14.5406 23.109 12.662 21.7235 11.2765C20.338 9.89096 18.4594 9.1116 16.5 9.10938ZM16.5 22.5469C15.304 22.5469 14.1349 22.1922 13.1405 21.5278C12.1461 20.8634 11.3711 19.919 10.9134 18.814C10.4557 17.7091 10.336 16.4933 10.5693 15.3203C10.8026 14.1473 11.3785 13.0699 12.2242 12.2242C13.0699 11.3785 14.1473 10.8026 15.3203 10.5693C16.4933 10.336 17.7091 10.4557 18.814 10.9134C19.919 11.3711 20.8634 12.1461 21.5278 13.1405C22.1922 14.1349 22.5469 15.304 22.5469 16.5C22.5451 18.1032 21.9074 19.6402 20.7738 20.7738C19.6402 21.9074 18.1032 22.5451 16.5 22.5469ZM23.8906 0.375H9.10938C6.79368 0.377623 4.57358 1.29869 2.93614 2.93614C1.29869 4.57358 0.377623 6.79368 0.375 9.10938V23.8906C0.377623 26.2063 1.29869 28.4264 2.93614 30.0639C4.57358 31.7013 6.79368 32.6224 9.10938 32.625H23.8906C26.2063 32.6224 28.4264 31.7013 30.0639 30.0639C31.7013 28.4264 32.6224 26.2063 32.625 23.8906V9.10938C32.6224 6.79368 31.7013 4.57358 30.0639 2.93614C28.4264 1.29869 26.2063 0.377623 23.8906 0.375ZM31.2812 23.8906C31.279 25.8501 30.4997 27.7286 29.1141 29.1141C27.7286 30.4997 25.8501 31.279 23.8906 31.2812H9.10938C7.14994 31.279 5.2714 30.4997 3.88587 29.1141C2.50034 27.7286 1.72097 25.8501 1.71875 23.8906V9.10938C1.72097 7.14994 2.50034 5.2714 3.88587 3.88587C5.2714 2.50034 7.14994 1.72097 9.10938 1.71875H23.8906C25.8501 1.72097 27.7286 2.50034 29.1141 3.88587C30.4997 5.2714 31.279 7.14994 31.2812 9.10938V23.8906ZM26.5781 7.76562C26.5781 8.03139 26.4993 8.29119 26.3517 8.51217C26.204 8.73315 25.9941 8.90538 25.7486 9.00709C25.5031 9.10879 25.2329 9.1354 24.9722 9.08356C24.7116 9.03171 24.4721 8.90373 24.2842 8.7158C24.0963 8.52787 23.9683 8.28844 23.9164 8.02778C23.8646 7.76712 23.8912 7.49693 23.9929 7.25139C24.0946 7.00586 24.2668 6.79599 24.4878 6.64834C24.7088 6.50068 24.9686 6.42188 25.2344 6.42188C25.5906 6.42232 25.9322 6.56404 26.1841 6.81594C26.436 7.06785 26.5777 7.40938 26.5781 7.76562Z" fill="currentColor"/>
</symbol><symbol id="linkedin" viewBox="0 0 31 31">
<path d="M28.9375 0.046875H2.0625C1.52811 0.0474974 1.01579 0.260057 0.637925 0.637925C0.260057 1.01579 0.0474974 1.52811 0.046875 2.0625V28.9375C0.0474974 29.4719 0.260057 29.9842 0.637925 30.3621C1.01579 30.7399 1.52811 30.9525 2.0625 30.9531H28.9375C29.4719 30.9525 29.9842 30.7399 30.3621 30.3621C30.7399 29.9842 30.9525 29.4719 30.9531 28.9375V2.0625C30.9525 1.52811 30.7399 1.01579 30.3621 0.637925C29.9842 0.260057 29.4719 0.0474974 28.9375 0.046875ZM29.6094 28.9375C29.6092 29.1156 29.5383 29.2864 29.4123 29.4123C29.2864 29.5383 29.1156 29.6092 28.9375 29.6094H2.0625C1.88438 29.6092 1.71361 29.5383 1.58766 29.4123C1.46171 29.2864 1.39085 29.1156 1.39062 28.9375V2.0625C1.39085 1.88438 1.46171 1.71361 1.58766 1.58766C1.71361 1.46171 1.88438 1.39085 2.0625 1.39062H28.9375C29.1156 1.39085 29.2864 1.46171 29.4123 1.58766C29.5383 1.71361 29.6092 1.88438 29.6094 2.0625V28.9375ZM9.45312 12.8127V23.5627C9.45312 23.7409 9.38234 23.9118 9.25634 24.0378C9.13034 24.1638 8.95944 24.2345 8.78125 24.2345C8.60306 24.2345 8.43216 24.1638 8.30616 24.0378C8.18016 23.9118 8.10938 23.7409 8.10938 23.5627V12.8127C8.10938 12.6345 8.18016 12.4636 8.30616 12.3376C8.43216 12.2116 8.60306 12.1408 8.78125 12.1408C8.95944 12.1408 9.13034 12.2116 9.25634 12.3376C9.38234 12.4636 9.45312 12.6345 9.45312 12.8127ZM24.2344 17.5158V23.5627C24.2344 23.7409 24.1636 23.9118 24.0376 24.0378C23.9116 24.1638 23.7407 24.2345 23.5625 24.2345C23.3843 24.2345 23.2134 24.1638 23.0874 24.0378C22.9614 23.9118 22.8906 23.7409 22.8906 23.5627V17.5158C22.8906 16.4466 22.4659 15.4213 21.7099 14.6653C20.9539 13.9093 19.9285 13.4845 18.8594 13.4845C17.7902 13.4845 16.7649 13.9093 16.0089 14.6653C15.2528 15.4213 14.8281 16.4466 14.8281 17.5158V23.5627C14.8281 23.7409 14.7573 23.9118 14.6313 24.0378C14.5053 24.1638 14.3344 24.2345 14.1562 24.2345C13.9781 24.2345 13.8072 24.1638 13.6812 24.0378C13.5552 23.9118 13.4844 23.7409 13.4844 23.5627V12.8127C13.4844 12.6345 13.5552 12.4636 13.6812 12.3376C13.8072 12.2116 13.9781 12.1408 14.1562 12.1408C14.3344 12.1408 14.5053 12.2116 14.6313 12.3376C14.7573 12.4636 14.8281 12.6345 14.8281 12.8127V13.9663C15.5491 13.146 16.503 12.565 17.5627 12.3007C18.6223 12.0363 19.7374 12.1013 20.7591 12.4869C21.7809 12.8724 22.6609 13.5603 23.2818 14.4587C23.9027 15.3572 24.235 16.4235 24.2344 17.5156V17.5158ZM10.125 7.4375C10.125 7.70327 10.0462 7.96307 9.89854 8.18405C9.75088 8.40503 9.54102 8.57726 9.29548 8.67896C9.04994 8.78067 8.77976 8.80728 8.5191 8.75543C8.25844 8.70358 8.019 8.5756 7.83108 8.38767C7.64315 8.19975 7.51517 7.96031 7.46332 7.69965C7.41147 7.43899 7.43808 7.16881 7.53979 6.92327C7.64149 6.67773 7.81372 6.46787 8.0347 6.32021C8.25568 6.17256 8.51548 6.09375 8.78125 6.09375C9.1375 6.09419 9.47903 6.23591 9.73093 6.48782C9.98284 6.73972 10.1246 7.08125 10.125 7.4375Z" fill="currentColor"/>
</symbol><symbol id="logo" viewBox="0 0 122 44">
<path fill-rule="evenodd" clip-rule="evenodd" d="M22 34C28.6274 34 34 28.6274 34 22C34 15.3726 28.6274 10 22 10C15.3726 10 10 15.3726 10 22C10 28.6274 15.3726 34 22 34ZM22 44C34.1503 44 44 34.1503 44 22C44 9.84974 34.1503 0 22 0C9.84974 0 0 9.84974 0 22C0 34.1503 9.84974 44 22 44Z" fill="#FF0000"/>
<path d="M54.268 9.80005H66.112C68.632 9.80005 70.684 10.448 72.268 11.7441C73.852 13.016 74.644 14.672 74.644 16.7121C74.644 17.8161 74.368 18.8241 73.816 19.7361C73.264 20.6481 72.508 21.4041 71.548 22.0041C72.748 22.5801 73.708 23.372 74.428 24.38C75.148 25.364 75.508 26.4681 75.508 27.6921C75.508 29.8761 74.692 31.6401 73.06 32.9841C71.452 34.3281 69.328 35 66.688 35H54.268V9.80005ZM65.788 14.12H59.488V20.096H65.788C66.892 20.096 67.78 19.832 68.452 19.304C69.124 18.752 69.46 18.0201 69.46 17.1081C69.46 16.196 69.124 15.476 68.452 14.948C67.78 14.396 66.892 14.12 65.788 14.12ZM66.292 30.68C67.492 30.68 68.452 30.3921 69.172 29.8161C69.892 29.2161 70.252 28.412 70.252 27.404C70.252 26.444 69.892 25.6641 69.172 25.064C68.452 24.464 67.492 24.1641 66.292 24.1641H59.488V30.68H66.292Z" fill="black"/>
<path d="M79.1586 9.80005H91.0026C93.5226 9.80005 95.5746 10.448 97.1586 11.7441C98.7426 13.016 99.5346 14.672 99.5346 16.7121C99.5346 17.8161 99.2586 18.8241 98.7066 19.7361C98.1546 20.6481 97.3986 21.4041 96.4386 22.0041C97.6386 22.5801 98.5986 23.372 99.3186 24.38C100.039 25.364 100.399 26.4681 100.399 27.6921C100.399 29.8761 99.5826 31.6401 97.9506 32.9841C96.3426 34.3281 94.2186 35 91.5786 35H79.1586V9.80005ZM90.6786 14.12H84.3786V20.096H90.6786C91.7826 20.096 92.6706 19.832 93.3426 19.304C94.0146 18.752 94.3506 18.0201 94.3506 17.1081C94.3506 16.196 94.0146 15.476 93.3426 14.948C92.6706 14.396 91.7826 14.12 90.6786 14.12ZM91.1826 30.68C92.3826 30.68 93.3426 30.3921 94.0626 29.8161C94.7826 29.2161 95.1426 28.412 95.1426 27.404C95.1426 26.444 94.7826 25.6641 94.0626 25.064C93.3426 24.464 92.3826 24.1641 91.1826 24.1641H84.3786V30.68H91.1826Z" fill="black"/>
<path d="M120.537 32.66C119.385 33.5961 118.197 34.2801 116.973 34.7121C115.773 35.1441 114.429 35.3601 112.941 35.3601C111.525 35.3601 110.193 35.108 108.945 34.604C107.721 34.1 106.653 33.4161 105.741 32.5521C104.853 31.6881 104.145 30.6681 103.617 29.4921C103.113 28.292 102.861 27.0081 102.861 25.64C102.861 24.2961 103.101 23.0361 103.581 21.8601C104.085 20.6601 104.769 19.628 105.633 18.764C106.497 17.876 107.517 17.18 108.693 16.6761C109.893 16.172 111.165 15.92 112.509 15.92C113.829 15.92 115.053 16.1841 116.181 16.7121C117.333 17.2161 118.317 17.9121 119.133 18.8C119.973 19.688 120.621 20.7561 121.077 22.0041C121.557 23.2281 121.797 24.56 121.797 26V27.2961H107.829C108.165 28.4721 108.813 29.42 109.773 30.14C110.733 30.86 111.861 31.2201 113.157 31.2201C113.973 31.2201 114.741 31.0881 115.461 30.8241C116.181 30.5601 116.793 30.188 117.297 29.708L120.537 32.66ZM112.401 19.988C111.273 19.988 110.301 20.3361 109.485 21.0321C108.669 21.7041 108.105 22.616 107.793 23.7681H116.973C116.661 22.6641 116.085 21.764 115.245 21.068C114.429 20.348 113.481 19.988 112.401 19.988Z" fill="black"/>
</symbol><symbol id="shopLogo" viewBox="0 0 249 48">
<path fill-rule="evenodd" clip-rule="evenodd" d="M42.322 0.568049C41.3365 0.403806 40.5198 0.562575 40.2349 0.620948C39.8355 0.702784 39.4785 0.814051 39.206 0.908435C38.6534 1.09985 38.0836 1.35007 37.5578 1.60342C36.4885 2.11864 35.2487 2.81787 34.0542 3.59262C33.0328 4.25508 31.9332 5.04456 30.9572 5.90004C28.2211 4.67891 25.1898 4.00004 22 4.00004C9.84974 4.00004 0 13.8498 0 26C0 38.1503 9.84974 48 22 48C34.1503 48 44 38.1503 44 26C44 20.7807 42.1824 15.9858 39.1457 12.2139C39.2597 12.137 39.3765 12.0598 39.4958 11.9824C40.3763 11.4114 41.249 10.9252 41.8984 10.6122C42.0524 10.5381 42.176 10.4823 42.27 10.4417C44.3425 10.1191 46.0683 8.50418 46.432 6.32201C46.8859 3.59816 45.0458 1.02202 42.322 0.568049ZM42.4791 10.3576C42.4881 10.3545 42.4873 10.355 42.4777 10.3581L42.4791 10.3576ZM34 26C34 32.6275 28.6274 38 22 38C15.3726 38 10 32.6275 10 26C10 19.3726 15.3726 14 22 14C28.6274 14 34 19.3726 34 26Z" fill="#FF0000"/>
<path d="M61 15.08H72.844C75.364 15.08 77.416 15.728 79 17.024C80.584 18.296 81.376 19.952 81.376 21.992C81.376 23.096 81.1 24.104 80.548 25.016C79.996 25.928 79.24 26.684 78.28 27.284C79.48 27.86 80.44 28.652 81.16 29.66C81.88 30.644 82.24 31.748 82.24 32.972C82.24 35.156 81.424 36.92 79.792 38.264C78.184 39.608 76.06 40.28 73.42 40.28H61V15.08ZM72.52 19.4H66.22V25.376H72.52C73.624 25.376 74.512 25.112 75.184 24.584C75.856 24.032 76.192 23.3 76.192 22.388C76.192 21.476 75.856 20.756 75.184 20.228C74.512 19.676 73.624 19.4 72.52 19.4ZM73.024 35.96C74.224 35.96 75.184 35.672 75.904 35.096C76.624 34.496 76.984 33.692 76.984 32.684C76.984 31.724 76.624 30.944 75.904 30.344C75.184 29.744 74.224 29.444 73.024 29.444H66.22V35.96H73.024Z" fill="black"/>
<path d="M85.8906 15.08H97.7346C100.255 15.08 102.307 15.728 103.891 17.024C105.475 18.296 106.267 19.952 106.267 21.992C106.267 23.096 105.991 24.104 105.439 25.016C104.887 25.928 104.131 26.684 103.171 27.284C104.371 27.86 105.331 28.652 106.051 29.66C106.771 30.644 107.131 31.748 107.131 32.972C107.131 35.156 106.315 36.92 104.683 38.264C103.075 39.608 100.951 40.28 98.3106 40.28H85.8906V15.08ZM97.4106 19.4H91.1106V25.376H97.4106C98.5146 25.376 99.4026 25.112 100.075 24.584C100.747 24.032 101.083 23.3 101.083 22.388C101.083 21.476 100.747 20.756 100.075 20.228C99.4026 19.676 98.5146 19.4 97.4106 19.4ZM97.9146 35.96C99.1146 35.96 100.075 35.672 100.795 35.096C101.515 34.496 101.875 33.692 101.875 32.684C101.875 31.724 101.515 30.944 100.795 30.344C100.075 29.744 99.1146 29.444 97.9146 29.444H91.1106V35.96H97.9146Z" fill="black"/>
<path d="M127.269 37.94C126.117 38.876 124.929 39.56 123.705 39.992C122.505 40.424 121.161 40.64 119.673 40.64C118.257 40.64 116.925 40.388 115.677 39.884C114.453 39.38 113.385 38.696 112.473 37.832C111.585 36.968 110.877 35.948 110.349 34.772C109.845 33.572 109.593 32.288 109.593 30.92C109.593 29.576 109.833 28.316 110.313 27.14C110.817 25.94 111.501 24.908 112.365 24.044C113.229 23.156 114.249 22.46 115.425 21.956C116.625 21.452 117.897 21.2 119.241 21.2C120.561 21.2 121.785 21.464 122.913 21.992C124.065 22.496 125.049 23.192 125.865 24.08C126.705 24.968 127.353 26.036 127.809 27.284C128.289 28.508 128.529 29.84 128.529 31.28V32.576H114.561C114.897 33.752 115.545 34.7 116.505 35.42C117.465 36.14 118.593 36.5 119.889 36.5C120.705 36.5 121.473 36.368 122.193 36.104C122.913 35.84 123.525 35.468 124.029 34.988L127.269 37.94ZM119.133 25.268C118.005 25.268 117.033 25.616 116.217 26.312C115.401 26.984 114.837 27.896 114.525 29.048H123.705C123.393 27.944 122.817 27.044 121.977 26.348C121.161 25.628 120.213 25.268 119.133 25.268Z" fill="black"/>
<path d="M129.715 36.284L132.703 32.54C134.167 33.812 135.571 34.748 136.915 35.348C138.283 35.924 139.723 36.212 141.235 36.212C142.795 36.212 144.043 35.924 144.979 35.348C145.915 34.772 146.383 34.004 146.383 33.044C146.383 32.18 146.059 31.508 145.411 31.028C144.787 30.548 143.731 30.188 142.243 29.948L137.239 29.084C135.079 28.724 133.435 27.968 132.307 26.816C131.203 25.664 130.651 24.176 130.651 22.352C130.651 20 131.539 18.14 133.315 16.772C135.115 15.404 137.539 14.72 140.587 14.72C142.411 14.72 144.247 15.032 146.095 15.656C147.967 16.28 149.599 17.144 150.991 18.248L148.183 22.136C146.839 21.104 145.519 20.348 144.223 19.868C142.927 19.364 141.595 19.112 140.227 19.112C138.835 19.112 137.719 19.376 136.879 19.904C136.039 20.408 135.619 21.092 135.619 21.956C135.619 22.724 135.895 23.324 136.447 23.756C136.999 24.188 137.923 24.5 139.219 24.692L143.971 25.484C146.467 25.892 148.339 26.696 149.587 27.896C150.859 29.072 151.495 30.632 151.495 32.576C151.495 35.024 150.523 36.98 148.579 38.444C146.659 39.908 144.091 40.64 140.875 40.64C138.859 40.64 136.867 40.256 134.899 39.488C132.955 38.72 131.227 37.652 129.715 36.284Z" fill="black"/>
<path d="M154.297 40.28V15.08L159.229 14V23C159.949 22.4 160.741 21.944 161.605 21.632C162.493 21.32 163.453 21.164 164.485 21.164C166.645 21.164 168.421 21.86 169.813 23.252C171.205 24.644 171.901 26.432 171.901 28.616V40.28H166.969V29.336C166.969 28.16 166.609 27.212 165.889 26.492C165.193 25.772 164.257 25.412 163.081 25.412C162.265 25.412 161.521 25.58 160.849 25.916C160.201 26.228 159.661 26.684 159.229 27.284V40.28H154.297Z" fill="black"/>
<path d="M174.773 30.92C174.773 29.552 175.025 28.28 175.529 27.104C176.057 25.904 176.765 24.872 177.653 24.008C178.565 23.12 179.633 22.424 180.857 21.92C182.081 21.416 183.389 21.164 184.781 21.164C186.173 21.164 187.481 21.416 188.705 21.92C189.929 22.424 190.985 23.12 191.873 24.008C192.785 24.872 193.493 25.904 193.997 27.104C194.525 28.28 194.789 29.552 194.789 30.92C194.789 32.288 194.525 33.572 193.997 34.772C193.493 35.948 192.785 36.968 191.873 37.832C190.985 38.696 189.929 39.38 188.705 39.884C187.481 40.388 186.173 40.64 184.781 40.64C183.389 40.64 182.081 40.388 180.857 39.884C179.633 39.38 178.565 38.696 177.653 37.832C176.765 36.968 176.057 35.948 175.529 34.772C175.025 33.572 174.773 32.288 174.773 30.92ZM184.781 36.356C186.221 36.356 187.445 35.828 188.453 34.772C189.461 33.716 189.965 32.432 189.965 30.92C189.965 29.384 189.461 28.088 188.453 27.032C187.445 25.976 186.221 25.448 184.781 25.448C183.341 25.448 182.117 25.976 181.109 27.032C180.101 28.088 179.597 29.384 179.597 30.92C179.597 32.432 180.101 33.716 181.109 34.772C182.117 35.828 183.341 36.356 184.781 36.356Z" fill="black"/>
<path d="M197.821 47.804V21.524H202.681V23.072C203.425 22.472 204.253 22.028 205.165 21.74C206.077 21.428 207.025 21.272 208.009 21.272C209.329 21.272 210.565 21.524 211.717 22.028C212.893 22.532 213.913 23.216 214.777 24.08C215.641 24.944 216.313 25.964 216.793 27.14C217.297 28.316 217.549 29.576 217.549 30.92C217.549 32.264 217.297 33.524 216.793 34.7C216.289 35.876 215.605 36.896 214.741 37.76C213.877 38.624 212.845 39.308 211.645 39.812C210.469 40.292 209.209 40.532 207.865 40.532C206.953 40.532 206.053 40.412 205.165 40.172C204.301 39.908 203.497 39.536 202.753 39.056V47.804H197.821ZM207.217 25.484C206.329 25.484 205.501 25.64 204.733 25.952C203.965 26.24 203.305 26.672 202.753 27.248V34.628C203.281 35.156 203.929 35.576 204.697 35.888C205.489 36.2 206.329 36.356 207.217 36.356C208.753 36.356 210.049 35.84 211.105 34.808C212.161 33.752 212.689 32.456 212.689 30.92C212.689 29.384 212.149 28.1 211.069 27.068C210.013 26.012 208.729 25.484 207.217 25.484Z" fill="black"/>
</symbol><symbol id="spinner" viewBox="0 0 122.88 122.88"><title>wait-loader</title><path d="M57.85,3.61a3.61,3.61,0,1,1,7.21,0V27.45a3.61,3.61,0,0,1-7.21,0V3.61ZM29.42,13.15a3.6,3.6,0,0,1,6.23-3.61L47.57,30.19a3.6,3.6,0,1,1-6.22,3.61L29.42,13.15ZM9.57,35.62a3.59,3.59,0,0,1,3.58-6.22L33.8,41.32a3.59,3.59,0,1,1-3.58,6.22L9.57,35.62ZM3.61,65a3.61,3.61,0,1,1,0-7.21H27.45a3.61,3.61,0,0,1,0,7.21Zm9.54,28.43a3.6,3.6,0,1,1-3.61-6.23L30.19,75.31a3.6,3.6,0,1,1,3.61,6.22L13.15,93.46Zm22.47,19.85a3.59,3.59,0,0,1-6.22-3.58L41.32,89.08a3.59,3.59,0,1,1,6.22,3.58L35.62,113.31Zm29.41,6a3.61,3.61,0,1,1-7.21,0V95.43a3.61,3.61,0,0,1,7.21,0v23.84Zm28.43-9.54a3.6,3.6,0,0,1-6.23,3.61L75.31,92.69a3.6,3.6,0,0,1,6.22-3.61l11.93,20.65Zm19.85-22.47a3.59,3.59,0,0,1-3.58,6.22L89.08,81.56a3.59,3.59,0,1,1,3.58-6.22l20.65,11.92Zm6-29.41a3.61,3.61,0,1,1,0,7.21H95.43a3.61,3.61,0,0,1,0-7.21Zm-9.54-28.43a3.6,3.6,0,0,1,3.61,6.23L92.69,47.57a3.6,3.6,0,0,1-3.61-6.22l20.65-11.93ZM87.26,9.57a3.59,3.59,0,1,1,6.22,3.58L81.56,33.8a3.59,3.59,0,1,1-6.22-3.58L87.26,9.57Z"/></symbol><symbol id="twitter" viewBox="0 0 33 33">
<path d="M16.5 -0.0351562C7.38272 -0.0351562 -0.0360947 7.38159 -0.0360947 16.4999C-0.0360947 25.6182 7.38272 33.035 16.5 33.035C25.6173 33.035 33.0361 25.6182 33.0361 16.4999C33.0361 7.38159 25.6173 -0.0351562 16.5 -0.0351562ZM16.5 31.9336C7.99012 31.9336 1.06734 25.0098 1.06734 16.4999C1.06734 7.99003 7.99012 1.06622 16.5 1.06622C25.0099 1.06622 31.9327 7.99003 31.9327 16.4999C31.9327 25.0098 25.0099 31.9336 16.5 31.9336Z" fill="currentColor"/>
<path d="M25.5688 11.3911C25.6832 11.1794 25.7775 10.9574 25.8503 10.728C25.8841 10.6216 25.8848 10.5075 25.8523 10.4007C25.8198 10.2939 25.7557 10.1995 25.6685 10.1299C25.5812 10.0603 25.4749 10.0188 25.3636 10.0109C25.2523 10.003 25.1412 10.029 25.0449 10.0855C24.5165 10.3995 23.9445 10.6333 23.3475 10.7796C22.6228 10.1255 21.6816 9.76293 20.7054 9.76172C20.1751 9.76213 19.6503 9.86962 19.1625 10.0778C18.6747 10.2859 18.2339 10.5904 17.8666 10.973C17.4993 11.3556 17.2131 11.8084 17.025 12.3043C16.837 12.8002 16.751 13.3289 16.7723 13.8589C14.453 13.5669 12.3351 12.3933 10.858 10.5816C10.8014 10.5129 10.7291 10.459 10.6472 10.4243C10.5653 10.3895 10.4762 10.3751 10.3875 10.3822C10.2989 10.3893 10.2132 10.4177 10.1378 10.465C10.0625 10.5122 9.99964 10.577 9.95466 10.6538C9.61643 11.2343 9.4326 11.8918 9.42068 12.5635C9.40877 13.2353 9.56917 13.8989 9.8866 14.491C9.80875 14.5042 9.73396 14.5314 9.66591 14.5715C9.58253 14.6246 9.51388 14.6979 9.4663 14.7846C9.41872 14.8713 9.39374 14.9686 9.39366 15.0675C9.39366 16.238 9.91444 17.3125 10.7539 18.0427L10.7178 18.0787C10.6544 18.1504 10.6108 18.2374 10.5913 18.3311C10.5718 18.4248 10.577 18.5219 10.6064 18.6129C10.7815 19.159 11.0737 19.6602 11.4628 20.0815C11.8518 20.5028 12.3282 20.834 12.8587 21.0518C11.7692 21.5833 10.5501 21.7905 9.34622 21.6489C9.22248 21.6363 9.09804 21.6651 8.99242 21.7308C8.88679 21.7965 8.80594 21.8954 8.76254 22.0119C8.72085 22.1294 8.72007 22.2574 8.76031 22.3754C8.80056 22.4933 8.87948 22.5942 8.98425 22.6616C10.6209 23.712 12.5248 24.27 14.4695 24.2693C20.8426 24.2693 24.652 19.0925 24.652 14.0878L24.651 13.9187C25.2687 13.4365 25.8052 12.8586 26.2402 12.2068C26.306 12.1083 26.3384 11.9912 26.3325 11.8728C26.3267 11.7544 26.2828 11.6411 26.2075 11.5496C26.1322 11.4581 26.0294 11.3932 25.9144 11.3647C25.7993 11.3361 25.6782 11.3454 25.5688 11.3911ZM23.7693 13.2009C23.6945 13.2547 23.6343 13.3265 23.5943 13.4095C23.5543 13.4925 23.5358 13.5843 23.5403 13.6763C23.5465 13.8125 23.5496 13.9507 23.5496 14.0868C23.5496 18.55 20.1537 23.1669 14.4705 23.1669C13.4569 23.1674 12.4504 22.9973 11.4933 22.6637C12.6396 22.444 13.7165 21.9524 14.6334 21.2302C14.7227 21.1599 14.788 21.0636 14.8205 20.9547C14.853 20.8458 14.8511 20.7295 14.815 20.6217C14.7789 20.5139 14.7103 20.4199 14.6188 20.3526C14.5272 20.2852 14.4171 20.2478 14.3034 20.2454C13.8588 20.2369 13.4224 20.124 13.0294 19.9159C12.6363 19.7077 12.2977 19.4101 12.0409 19.0471C12.3018 19.0296 12.5575 18.9862 12.8061 18.9192C12.9264 18.887 13.0322 18.815 13.1063 18.7149C13.1804 18.6149 13.2184 18.4926 13.214 18.3682C13.2097 18.2438 13.1634 18.1245 13.0825 18.0297C13.0017 17.935 12.8912 17.8705 12.7689 17.8467C12.2667 17.7446 11.8018 17.5078 11.4238 17.1618C11.0458 16.8157 10.7689 16.3734 10.6229 15.8822C10.8972 15.9513 11.1788 15.9915 11.4603 16.0008C11.7026 15.9997 11.9274 15.8513 12.0027 15.6182C12.078 15.3851 11.9893 15.1283 11.7841 14.9922C11.2989 14.6689 10.9253 14.2037 10.7143 13.6602C10.5033 13.1166 10.4653 12.5212 10.6054 11.9552C12.3967 13.7932 14.8155 14.8877 17.3786 15.0201C17.5601 15.0211 17.7189 14.9561 17.8293 14.8231C17.9396 14.6901 17.9819 14.5137 17.9427 14.3446C17.8017 13.7372 17.8648 13.1002 18.1222 12.5323C18.3797 11.9643 18.8171 11.4971 19.3669 11.2028C19.9167 10.9086 20.5481 10.8037 21.1635 10.9045C21.7788 11.0053 22.3438 11.306 22.771 11.7603C22.8351 11.8286 22.9154 11.8795 23.0045 11.9082C23.0937 11.9369 23.1886 11.9424 23.2805 11.9242C23.4506 11.8902 23.6187 11.851 23.7848 11.8057C23.7099 11.8617 23.6321 11.9137 23.5517 11.9614C23.4448 12.0269 23.3633 12.1269 23.3208 12.2448C23.2783 12.3628 23.2773 12.4918 23.3179 12.6104C23.3585 12.7291 23.4383 12.8304 23.5441 12.8976C23.65 12.9648 23.7756 12.994 23.9003 12.9802L24.0879 12.9565C23.9846 13.0417 23.8783 13.1232 23.7693 13.2009Z" fill="currentColor"/>
</symbol><symbol id="verified" viewBox="0 0 30 30">
<path d="M11.25 3.75C12.1771 3.75 13.0834 4.02492 13.8542 4.53999C14.6251 5.05506 15.2259 5.78714 15.5807 6.64367C15.9355 7.5002 16.0283 8.4427 15.8474 9.35199C15.6666 10.2613 15.2201 11.0965 14.5646 11.7521C13.909 12.4076 13.0738 12.8541 12.1645 13.0349C11.2552 13.2158 10.3127 13.123 9.45618 12.7682C8.59965 12.4134 7.86756 11.8126 7.35249 11.0417C6.83742 10.2709 6.5625 9.3646 6.5625 8.4375C6.5625 7.1943 7.05636 6.00201 7.93544 5.12294C8.81452 4.24386 10.0068 3.75 11.25 3.75ZM11.25 1.875C9.95206 1.875 8.68327 2.25988 7.60407 2.98098C6.52488 3.70208 5.68374 4.727 5.18704 5.92614C4.69034 7.12528 4.56038 8.44478 4.8136 9.71778C5.06682 10.9908 5.69183 12.1601 6.60961 13.0779C7.5274 13.9957 8.69672 14.6207 9.96972 14.8739C11.2427 15.1271 12.5622 14.9972 13.7614 14.5005C14.9605 14.0038 15.9854 13.1626 16.7065 12.0834C17.4276 11.0042 17.8125 9.73544 17.8125 8.4375C17.8125 6.69702 17.1211 5.02782 15.8904 3.79711C14.6597 2.5664 12.9905 1.875 11.25 1.875Z" fill="#06AB0D"/>
<path d="M20.625 28.125H18.75V23.4375C18.75 22.1943 18.2561 21.002 17.3771 20.1229C16.498 19.2439 15.3057 18.75 14.0625 18.75H8.4375C7.1943 18.75 6.00201 19.2439 5.12294 20.1229C4.24386 21.002 3.75 22.1943 3.75 23.4375V28.125H1.875V23.4375C1.875 21.697 2.5664 20.0278 3.79711 18.7971C5.02782 17.5664 6.69702 16.875 8.4375 16.875H14.0625C15.803 16.875 17.4722 17.5664 18.7029 18.7971C19.9336 20.0278 20.625 21.697 20.625 23.4375V28.125Z" fill="#06AB0D"/>
<path d="M23.4375 15.1687L21.0094 12.7406L19.6875 14.0625L23.4375 17.8125L30 11.25L28.6781 9.9281L23.4375 15.1687Z" fill="#06AB0D"/>
</symbol><symbol id="web" viewBox="0 0 28 28">
<path fill-rule="evenodd" clip-rule="evenodd" d="M14.0625 0.125C17.7258 0.125 21.2391 1.58024 23.8294 4.17059C26.4198 6.76093 27.875 10.2742 27.875 13.9375C27.875 17.6008 26.4198 21.1141 23.8294 23.7044C21.2391 26.2948 17.7258 27.75 14.0625 27.75C10.3992 27.75 6.88593 26.2948 4.29559 23.7044C1.70524 21.1141 0.25 17.6008 0.25 13.9375C0.25 10.2742 1.70524 6.76093 4.29559 4.17059C6.88593 1.58024 10.3992 0.125 14.0625 0.125ZM24.4622 8.625C23.0994 5.97514 20.7802 3.94238 17.9746 2.9385C18.9181 4.7235 19.6003 6.636 19.9998 8.625H24.4622ZM25.699 14.9894C25.733 14.6398 25.75 14.2887 25.75 13.9375C25.7479 12.8591 25.5955 11.7863 25.2974 10.75H20.3206C20.3886 11.4534 20.4375 12.161 20.4375 12.875C20.4331 14.3027 20.2865 15.7264 19.9998 17.125H25.2974C25.4992 16.4259 25.6331 15.7119 25.7011 14.9894H25.699ZM18.1871 14.9894L18.1999 14.881C18.2724 14.2148 18.31 13.5452 18.3125 12.875C18.2982 12.1642 18.2443 11.4548 18.151 10.75H9.974C9.87991 11.4547 9.82599 12.1642 9.8125 12.875C9.81769 14.3057 9.98378 15.7314 10.3076 17.125H17.8174C17.981 16.4195 18.1042 15.7076 18.1871 14.9894ZM17.7791 8.625C17.2785 6.3775 16.3749 4.23924 15.1123 2.31375C14.7638 2.284 14.4152 2.25 14.0625 2.25C13.8411 2.25108 13.6199 2.26172 13.3995 2.28188L13.0127 2.31375L13 2.335C11.744 4.25486 10.8448 6.38569 10.3459 8.625H17.7791ZM8.12525 8.625C8.53286 6.63737 9.22418 4.71869 10.178 2.92788C7.36022 3.92832 5.03011 5.96584 3.66275 8.625H8.12525ZM2.82763 10.75C2.5299 11.7864 2.37756 12.8592 2.375 13.9375C2.37756 15.0158 2.5299 16.0886 2.82763 17.125H8.12525C7.83715 15.7266 7.6905 14.3028 7.6875 12.875C7.6875 12.161 7.73637 11.4534 7.80437 10.75H2.82763ZM8.67988 19.25H3.66488C4.46815 20.8191 5.61503 22.1867 7.02012 23.2511C8.42521 24.3155 10.0523 25.0492 11.7803 25.3976C10.4202 23.5301 9.37308 21.4538 8.67988 19.25ZM14.0625 24.8685C15.4213 23.1879 16.4835 21.2878 17.2032 19.25H10.9218C11.6416 21.2878 12.7037 23.1879 14.0625 24.8685ZM19.4451 19.25C18.7519 21.4538 17.7047 23.5301 16.3448 25.3976C18.0726 25.0489 19.6996 24.3151 21.1046 23.2507C22.5096 22.1864 23.6566 20.8189 24.4601 19.25H19.4451Z" fill="currentColor"/>
</symbol><symbol id="youtube" viewBox="0 0 37 29">
<path d="M24.2477 13.9411L16.1852 8.56611C16.084 8.49864 15.9664 8.45991 15.845 8.45403C15.7235 8.44815 15.6027 8.47535 15.4955 8.53273C15.3883 8.59011 15.2986 8.67552 15.2361 8.77984C15.1736 8.88417 15.1406 9.0035 15.1406 9.12511V19.8751C15.1406 19.9967 15.1736 20.1161 15.2361 20.2204C15.2986 20.3247 15.3883 20.4101 15.4955 20.4675C15.6027 20.5249 15.7235 20.5521 15.845 20.5462C15.9664 20.5403 16.084 20.5016 16.1852 20.4341L24.2477 15.0591C24.3397 14.9978 24.4152 14.9146 24.4674 14.8171C24.5196 14.7196 24.5469 14.6107 24.5469 14.5001C24.5469 14.3895 24.5196 14.2806 24.4674 14.1831C24.4152 14.0856 24.3397 14.0025 24.2477 13.9411ZM16.4844 18.6197V10.3805L22.6639 14.5001L16.4844 18.6197ZM35.7101 4.8933C35.5777 4.37855 35.3249 3.90265 34.9723 3.50488C34.6198 3.1071 34.1778 2.79886 33.6827 2.60557C28.0067 0.424158 18.8816 0.457416 18.5042 0.459264C18.1189 0.457081 8.99347 0.423991 3.31714 2.6054C2.8221 2.79873 2.38012 3.107 2.02767 3.50477C1.67523 3.90254 1.42241 4.37842 1.29009 4.89314C0.865465 6.5231 0.359375 9.51312 0.359375 14.5001C0.359375 19.4873 0.865465 22.4771 1.28992 24.1071C1.42228 24.6218 1.67514 25.0977 2.02765 25.4955C2.38016 25.8933 2.8222 26.2015 3.3173 26.3948C8.99331 28.5761 18.1184 28.5431 18.4958 28.5409C18.5146 28.5409 18.5546 28.5413 18.6146 28.5413C19.7707 28.5413 28.2857 28.4689 33.6829 26.3948C34.1779 26.2015 34.6199 25.8932 34.9723 25.4954C35.3248 25.0977 35.5776 24.6218 35.7099 24.1071C36.1345 22.4771 36.6406 19.4871 36.6406 14.5001C36.6406 9.51295 36.1345 6.5231 35.7101 4.89314V4.8933ZM34.4097 23.7685C34.3314 24.0766 34.1809 24.3617 33.9707 24.6003C33.7605 24.8388 33.4966 25.024 33.2008 25.1404C27.763 27.2301 18.5966 27.1987 18.4958 27.1972C18.4034 27.1972 9.23703 27.2301 3.79921 25.1404C3.50337 25.0239 3.23947 24.8387 3.02928 24.6002C2.81909 24.3616 2.66864 24.0765 2.59034 23.7683C2.18553 22.2144 1.70312 19.345 1.70312 14.5001C1.70312 9.65539 2.1857 6.78581 2.59034 5.23176C2.66864 4.92361 2.81909 4.63851 3.02928 4.39996C3.23947 4.16141 3.50337 3.97626 3.79921 3.85979C9.2372 1.77009 18.4038 1.80335 18.5042 1.80301C18.5959 1.80184 27.763 1.76992 33.2008 3.85979C33.4966 3.9763 33.7605 4.16148 33.9707 4.40006C34.1809 4.63863 34.3314 4.92376 34.4097 5.23193C34.8145 6.78581 35.2969 9.65522 35.2969 14.5001C35.2969 19.3448 34.8143 22.2144 34.4097 23.7685Z" fill="currentColor"/>
</symbol></svg>