<svg width="24" height="30" viewBox="0 0 24 30" fill="none" xmlns="http://www.w3.org/2000/svg">
<path d="M19.9108 15.8985C19.9251 14.7926 20.2197 13.7083 20.7671 12.7464C21.3146 11.7845 22.0972 10.9763 23.042 10.3971C22.4418 9.54225 21.6499 8.83875 20.7294 8.34247C19.8088 7.84619 18.7849 7.5708 17.7389 7.53817C15.5077 7.30462 13.3446 8.86956 12.2076 8.86956C11.0486 8.86956 9.298 7.56135 7.41291 7.60003C6.19358 7.63931 5.00525 7.99289 3.9637 8.62632C2.92215 9.25974 2.0629 10.1514 1.46967 11.2144C-1.10006 15.6511 0.816727 22.1715 3.27832 25.7577C4.50991 27.5138 5.94928 29.4754 7.83266 29.4058C9.67567 29.3296 10.364 28.2339 12.5887 28.2339C14.7927 28.2339 15.4385 29.4058 17.3601 29.3616C19.3377 29.3296 20.5837 27.5977 21.7721 25.825C22.657 24.5737 23.3379 23.1908 23.7896 21.7274C22.6407 21.2428 21.6602 20.4317 20.9704 19.3952C20.2807 18.3586 19.9121 17.1425 19.9108 15.8985Z" fill="currentColor"/>
<path d="M16.2816 5.17962C17.3599 3.8888 17.8911 2.22967 17.7625 0.554565C16.1151 0.727107 14.5934 1.51224 13.5005 2.75354C12.9662 3.35995 12.5569 4.06542 12.2962 4.82964C12.0354 5.59386 11.9283 6.40183 11.9808 7.20737C12.8048 7.21583 13.62 7.03773 14.365 6.68649C15.1099 6.33525 15.7652 5.82003 16.2816 5.17962Z" fill="currentColor"/>
</svg>
