<svg width="28" height="28" viewBox="0 0 28 28" fill="none" xmlns="http://www.w3.org/2000/svg">
<path d="M0 1.71875C0 1.4784 0.0954797 1.24789 0.265435 1.07793C0.435389 0.90798 0.665898 0.8125 0.90625 0.8125H3.625C3.82715 0.812556 4.02348 0.880198 4.18276 1.00467C4.34205 1.12914 4.45514 1.3033 4.50406 1.49944L5.23813 4.4375H26.2812C26.4143 4.43762 26.5457 4.46705 26.6661 4.52369C26.7866 4.58032 26.893 4.66278 26.978 4.76521C27.0629 4.86763 27.1243 4.9875 27.1577 5.11631C27.1911 5.24512 27.1957 5.3797 27.1712 5.5105L24.4524 20.0105C24.4136 20.2182 24.3034 20.4057 24.1409 20.5408C23.9784 20.6758 23.7738 20.7498 23.5625 20.75H7.25C7.03872 20.7498 6.83415 20.6758 6.67165 20.5408C6.50915 20.4057 6.39894 20.2182 6.36006 20.0105L3.64313 5.53769L2.91812 2.625H0.90625C0.665898 2.625 0.435389 2.52952 0.265435 2.35957C0.0954797 2.18961 0 1.9591 0 1.71875ZM5.62238 6.25L8.00219 18.9375H22.8103L25.1901 6.25H5.62238ZM9.0625 20.75C8.10109 20.75 7.17906 21.1319 6.49924 21.8117C5.81942 22.4916 5.4375 23.4136 5.4375 24.375C5.4375 25.3364 5.81942 26.2584 6.49924 26.9383C7.17906 27.6181 8.10109 28 9.0625 28C10.0239 28 10.9459 27.6181 11.6258 26.9383C12.3056 26.2584 12.6875 25.3364 12.6875 24.375C12.6875 23.4136 12.3056 22.4916 11.6258 21.8117C10.9459 21.1319 10.0239 20.75 9.0625 20.75ZM21.75 20.75C20.7886 20.75 19.8666 21.1319 19.1867 21.8117C18.5069 22.4916 18.125 23.4136 18.125 24.375C18.125 25.3364 18.5069 26.2584 19.1867 26.9383C19.8666 27.6181 20.7886 28 21.75 28C22.7114 28 23.6334 27.6181 24.3133 26.9383C24.9931 26.2584 25.375 25.3364 25.375 24.375C25.375 23.4136 24.9931 22.4916 24.3133 21.8117C23.6334 21.1319 22.7114 20.75 21.75 20.75ZM9.0625 22.5625C9.54321 22.5625 10.0042 22.7535 10.3441 23.0934C10.684 23.4333 10.875 23.8943 10.875 24.375C10.875 24.8557 10.684 25.3167 10.3441 25.6566C10.0042 25.9965 9.54321 26.1875 9.0625 26.1875C8.58179 26.1875 8.12078 25.9965 7.78087 25.6566C7.44096 25.3167 7.25 24.8557 7.25 24.375C7.25 23.8943 7.44096 23.4333 7.78087 23.0934C8.12078 22.7535 8.58179 22.5625 9.0625 22.5625ZM21.75 22.5625C22.2307 22.5625 22.6917 22.7535 23.0316 23.0934C23.3715 23.4333 23.5625 23.8943 23.5625 24.375C23.5625 24.8557 23.3715 25.3167 23.0316 25.6566C22.6917 25.9965 22.2307 26.1875 21.75 26.1875C21.2693 26.1875 20.8083 25.9965 20.4684 25.6566C20.1285 25.3167 19.9375 24.8557 19.9375 24.375C19.9375 23.8943 20.1285 23.4333 20.4684 23.0934C20.8083 22.7535 21.2693 22.5625 21.75 22.5625Z" fill="currentColor"/>
</svg>
