<svg width="20" height="20" viewBox="0 0 20 20" fill="none" xmlns="http://www.w3.org/2000/svg">
<path d="M10 0.833374C4.93087 0.833374 0.833374 4.93087 0.833374 10C0.833374 15.0692 4.93087 19.1667 10 19.1667C15.0692 19.1667 19.1667 15.0692 19.1667 10C19.1667 4.93087 15.0692 0.833374 10 0.833374ZM13.9325 12.6492C14.0174 12.7341 14.0847 12.8348 14.1307 12.9457C14.1766 13.0566 14.2002 13.1754 14.2002 13.2955C14.2002 13.4155 14.1766 13.5343 14.1307 13.6452C14.0847 13.7561 14.0174 13.8568 13.9325 13.9417C13.8477 14.0266 13.7469 14.0939 13.636 14.1398C13.5252 14.1858 13.4063 14.2094 13.2863 14.2094C13.1663 14.2094 13.0474 14.1858 12.9365 14.1398C12.8257 14.0939 12.7249 14.0266 12.64 13.9417L10 11.2925L7.35087 13.9417C7.17948 14.1131 6.94701 14.2094 6.70462 14.2094C6.46223 14.2094 6.22977 14.1131 6.05837 13.9417C5.88698 13.7703 5.79069 13.5378 5.79069 13.2955C5.79069 13.1754 5.81433 13.0566 5.86026 12.9457C5.90619 12.8348 5.97351 12.7341 6.05837 12.6492L8.70754 10L6.06754 7.35087C5.98267 7.26601 5.91535 7.16526 5.86942 7.05437C5.82349 6.94349 5.79986 6.82464 5.79986 6.70462C5.79986 6.46223 5.89614 6.22977 6.06754 6.05837C6.23894 5.88698 6.4714 5.79069 6.71379 5.79069C6.95618 5.79069 7.18864 5.88698 7.36004 6.05837L10 8.70754L12.6492 6.05837C12.7341 5.97351 12.8348 5.90619 12.9457 5.86026C13.0566 5.81433 13.1754 5.79069 13.2955 5.79069C13.4155 5.79069 13.5343 5.81433 13.6452 5.86026C13.7561 5.90619 13.8568 5.97351 13.9417 6.05837C14.0266 6.14324 14.0939 6.24399 14.1398 6.35488C14.1858 6.46576 14.2094 6.5846 14.2094 6.70462C14.2094 6.82464 14.1858 6.94349 14.1398 7.05437C14.0939 7.16526 14.0266 7.26601 13.9417 7.35087L11.2925 10L13.9325 12.6492Z" fill="currentColor"/>
</svg>
