<svg width="35" height="35" viewBox="0 0 35 35" fill="none" xmlns="http://www.w3.org/2000/svg">
<path d="M34.2969 17.5C34.2969 14.178 33.3118 10.9305 31.4662 8.16836C29.6206 5.40616 26.9974 3.25327 23.9283 1.9819C20.8592 0.710525 17.482 0.377783 14.2238 1.02574C10.9656 1.67371 7.97264 3.27327 5.62348 5.62217C3.27433 7.97107 1.67443 10.9638 1.02611 14.222C0.377793 17.4801 0.710164 20.8574 1.9812 23.9266C3.25223 26.9959 5.40484 29.6193 8.16683 31.4652C10.9288 33.3111 14.1761 34.2965 17.4982 34.2969L17.5 34.2971L17.5019 34.2969C21.9548 34.2914 26.2238 32.5199 29.3723 29.371C32.5208 26.2221 34.2919 21.953 34.2969 17.5ZM18.1719 32.9377V20.8594H22.875C23.0532 20.8594 23.2241 20.7886 23.3501 20.6626C23.4761 20.5366 23.5469 20.3657 23.5469 20.1875C23.5469 20.0093 23.4761 19.8384 23.3501 19.7124C23.2241 19.5864 23.0532 19.5156 22.875 19.5156H18.1719V14.8125C18.1729 13.9218 18.5271 13.0679 19.1569 12.4382C19.7867 11.8084 20.6406 11.4541 21.5313 11.4531H24.2188C24.397 11.4531 24.5679 11.3823 24.6939 11.2563C24.8199 11.1303 24.8906 10.9594 24.8906 10.7813C24.8906 10.6031 24.8199 10.4322 24.6939 10.3062C24.5679 10.1802 24.397 10.1094 24.2188 10.1094H21.5313C20.2843 10.1108 19.0889 10.6067 18.2072 11.4884C17.3255 12.3701 16.8295 13.5656 16.8281 14.8125V19.5156H12.125C11.9468 19.5156 11.7759 19.5864 11.6499 19.7124C11.5239 19.8384 11.4531 20.0093 11.4531 20.1875C11.4531 20.3657 11.5239 20.5366 11.6499 20.6626C11.7759 20.7886 11.9468 20.8594 12.125 20.8594H16.8281V32.9375C12.7917 32.7618 8.98464 31.0124 6.22245 28.0638C3.46027 25.1153 1.96269 21.2023 2.05054 17.163C2.1384 13.1237 3.80469 9.27947 6.69246 6.45383C9.58023 3.62818 13.4598 2.04587 17.5 2.04587C21.5402 2.04587 25.4198 3.62818 28.3076 6.45383C31.1953 9.27947 32.8616 13.1237 32.9495 17.163C33.0373 21.2023 31.5398 25.1153 28.7776 28.0638C26.0154 31.0124 22.2083 32.7618 18.1719 32.9375V32.9377Z" fill="currentColor"/>
</svg>
