<svg width="33" height="33" viewBox="0 0 33 33" fill="none" xmlns="http://www.w3.org/2000/svg">
<path d="M16.5 9.10938C15.0383 9.10938 13.6094 9.54283 12.394 10.3549C11.1786 11.167 10.2313 12.3213 9.67195 13.6717C9.11257 15.0222 8.96622 16.5082 9.25138 17.9418C9.53655 19.3755 10.2404 20.6924 11.274 21.726C12.3076 22.7596 13.6245 23.4634 15.0582 23.7486C16.4918 24.0338 17.9778 23.8874 19.3283 23.328C20.6787 22.7687 21.833 21.8214 22.6451 20.606C23.4572 19.3906 23.8906 17.9617 23.8906 16.5C23.8884 14.5406 23.109 12.662 21.7235 11.2765C20.338 9.89096 18.4594 9.1116 16.5 9.10938ZM16.5 22.5469C15.304 22.5469 14.1349 22.1922 13.1405 21.5278C12.1461 20.8634 11.3711 19.919 10.9134 18.814C10.4557 17.7091 10.336 16.4933 10.5693 15.3203C10.8026 14.1473 11.3785 13.0699 12.2242 12.2242C13.0699 11.3785 14.1473 10.8026 15.3203 10.5693C16.4933 10.336 17.7091 10.4557 18.814 10.9134C19.919 11.3711 20.8634 12.1461 21.5278 13.1405C22.1922 14.1349 22.5469 15.304 22.5469 16.5C22.5451 18.1032 21.9074 19.6402 20.7738 20.7738C19.6402 21.9074 18.1032 22.5451 16.5 22.5469ZM23.8906 0.375H9.10938C6.79368 0.377623 4.57358 1.29869 2.93614 2.93614C1.29869 4.57358 0.377623 6.79368 0.375 9.10938V23.8906C0.377623 26.2063 1.29869 28.4264 2.93614 30.0639C4.57358 31.7013 6.79368 32.6224 9.10938 32.625H23.8906C26.2063 32.6224 28.4264 31.7013 30.0639 30.0639C31.7013 28.4264 32.6224 26.2063 32.625 23.8906V9.10938C32.6224 6.79368 31.7013 4.57358 30.0639 2.93614C28.4264 1.29869 26.2063 0.377623 23.8906 0.375ZM31.2812 23.8906C31.279 25.8501 30.4997 27.7286 29.1141 29.1141C27.7286 30.4997 25.8501 31.279 23.8906 31.2812H9.10938C7.14994 31.279 5.2714 30.4997 3.88587 29.1141C2.50034 27.7286 1.72097 25.8501 1.71875 23.8906V9.10938C1.72097 7.14994 2.50034 5.2714 3.88587 3.88587C5.2714 2.50034 7.14994 1.72097 9.10938 1.71875H23.8906C25.8501 1.72097 27.7286 2.50034 29.1141 3.88587C30.4997 5.2714 31.279 7.14994 31.2812 9.10938V23.8906ZM26.5781 7.76562C26.5781 8.03139 26.4993 8.29119 26.3517 8.51217C26.204 8.73315 25.9941 8.90538 25.7486 9.00709C25.5031 9.10879 25.2329 9.1354 24.9722 9.08356C24.7116 9.03171 24.4721 8.90373 24.2842 8.7158C24.0963 8.52787 23.9683 8.28844 23.9164 8.02778C23.8646 7.76712 23.8912 7.49693 23.9929 7.25139C24.0946 7.00586 24.2668 6.79599 24.4878 6.64834C24.7088 6.50068 24.9686 6.42188 25.2344 6.42188C25.5906 6.42232 25.9322 6.56404 26.1841 6.81594C26.436 7.06785 26.5777 7.40938 26.5781 7.76562Z" fill="currentColor"/>
</svg>
