<svg width="31" height="31" viewBox="0 0 31 31" fill="none" xmlns="http://www.w3.org/2000/svg">
<path d="M28.9375 0.046875H2.0625C1.52811 0.0474974 1.01579 0.260057 0.637925 0.637925C0.260057 1.01579 0.0474974 1.52811 0.046875 2.0625V28.9375C0.0474974 29.4719 0.260057 29.9842 0.637925 30.3621C1.01579 30.7399 1.52811 30.9525 2.0625 30.9531H28.9375C29.4719 30.9525 29.9842 30.7399 30.3621 30.3621C30.7399 29.9842 30.9525 29.4719 30.9531 28.9375V2.0625C30.9525 1.52811 30.7399 1.01579 30.3621 0.637925C29.9842 0.260057 29.4719 0.0474974 28.9375 0.046875ZM29.6094 28.9375C29.6092 29.1156 29.5383 29.2864 29.4123 29.4123C29.2864 29.5383 29.1156 29.6092 28.9375 29.6094H2.0625C1.88438 29.6092 1.71361 29.5383 1.58766 29.4123C1.46171 29.2864 1.39085 29.1156 1.39062 28.9375V2.0625C1.39085 1.88438 1.46171 1.71361 1.58766 1.58766C1.71361 1.46171 1.88438 1.39085 2.0625 1.39062H28.9375C29.1156 1.39085 29.2864 1.46171 29.4123 1.58766C29.5383 1.71361 29.6092 1.88438 29.6094 2.0625V28.9375ZM9.45312 12.8127V23.5627C9.45312 23.7409 9.38234 23.9118 9.25634 24.0378C9.13034 24.1638 8.95944 24.2345 8.78125 24.2345C8.60306 24.2345 8.43216 24.1638 8.30616 24.0378C8.18016 23.9118 8.10938 23.7409 8.10938 23.5627V12.8127C8.10938 12.6345 8.18016 12.4636 8.30616 12.3376C8.43216 12.2116 8.60306 12.1408 8.78125 12.1408C8.95944 12.1408 9.13034 12.2116 9.25634 12.3376C9.38234 12.4636 9.45312 12.6345 9.45312 12.8127ZM24.2344 17.5158V23.5627C24.2344 23.7409 24.1636 23.9118 24.0376 24.0378C23.9116 24.1638 23.7407 24.2345 23.5625 24.2345C23.3843 24.2345 23.2134 24.1638 23.0874 24.0378C22.9614 23.9118 22.8906 23.7409 22.8906 23.5627V17.5158C22.8906 16.4466 22.4659 15.4213 21.7099 14.6653C20.9539 13.9093 19.9285 13.4845 18.8594 13.4845C17.7902 13.4845 16.7649 13.9093 16.0089 14.6653C15.2528 15.4213 14.8281 16.4466 14.8281 17.5158V23.5627C14.8281 23.7409 14.7573 23.9118 14.6313 24.0378C14.5053 24.1638 14.3344 24.2345 14.1562 24.2345C13.9781 24.2345 13.8072 24.1638 13.6812 24.0378C13.5552 23.9118 13.4844 23.7409 13.4844 23.5627V12.8127C13.4844 12.6345 13.5552 12.4636 13.6812 12.3376C13.8072 12.2116 13.9781 12.1408 14.1562 12.1408C14.3344 12.1408 14.5053 12.2116 14.6313 12.3376C14.7573 12.4636 14.8281 12.6345 14.8281 12.8127V13.9663C15.5491 13.146 16.503 12.565 17.5627 12.3007C18.6223 12.0363 19.7374 12.1013 20.7591 12.4869C21.7809 12.8724 22.6609 13.5603 23.2818 14.4587C23.9027 15.3572 24.235 16.4235 24.2344 17.5156V17.5158ZM10.125 7.4375C10.125 7.70327 10.0462 7.96307 9.89854 8.18405C9.75088 8.40503 9.54102 8.57726 9.29548 8.67896C9.04994 8.78067 8.77976 8.80728 8.5191 8.75543C8.25844 8.70358 8.019 8.5756 7.83108 8.38767C7.64315 8.19975 7.51517 7.96031 7.46332 7.69965C7.41147 7.43899 7.43808 7.16881 7.53979 6.92327C7.64149 6.67773 7.81372 6.46787 8.0347 6.32021C8.25568 6.17256 8.51548 6.09375 8.78125 6.09375C9.1375 6.09419 9.47903 6.23591 9.73093 6.48782C9.98284 6.73972 10.1246 7.08125 10.125 7.4375Z" fill="currentColor"/>
</svg>
