<svg width="249" height="48" viewBox="0 0 249 48" fill="none" xmlns="http://www.w3.org/2000/svg">
<path fill-rule="evenodd" clip-rule="evenodd" d="M42.322 0.568049C41.3365 0.403806 40.5198 0.562575 40.2349 0.620948C39.8355 0.702784 39.4785 0.814051 39.206 0.908435C38.6534 1.09985 38.0836 1.35007 37.5578 1.60342C36.4885 2.11864 35.2487 2.81787 34.0542 3.59262C33.0328 4.25508 31.9332 5.04456 30.9572 5.90004C28.2211 4.67891 25.1898 4.00004 22 4.00004C9.84974 4.00004 0 13.8498 0 26C0 38.1503 9.84974 48 22 48C34.1503 48 44 38.1503 44 26C44 20.7807 42.1824 15.9858 39.1457 12.2139C39.2597 12.137 39.3765 12.0598 39.4958 11.9824C40.3763 11.4114 41.249 10.9252 41.8984 10.6122C42.0524 10.5381 42.176 10.4823 42.27 10.4417C44.3425 10.1191 46.0683 8.50418 46.432 6.32201C46.8859 3.59816 45.0458 1.02202 42.322 0.568049ZM42.4791 10.3576C42.4881 10.3545 42.4873 10.355 42.4777 10.3581L42.4791 10.3576ZM34 26C34 32.6275 28.6274 38 22 38C15.3726 38 10 32.6275 10 26C10 19.3726 15.3726 14 22 14C28.6274 14 34 19.3726 34 26Z" fill="#FF0000"/>
<path d="M61 15.08H72.844C75.364 15.08 77.416 15.728 79 17.024C80.584 18.296 81.376 19.952 81.376 21.992C81.376 23.096 81.1 24.104 80.548 25.016C79.996 25.928 79.24 26.684 78.28 27.284C79.48 27.86 80.44 28.652 81.16 29.66C81.88 30.644 82.24 31.748 82.24 32.972C82.24 35.156 81.424 36.92 79.792 38.264C78.184 39.608 76.06 40.28 73.42 40.28H61V15.08ZM72.52 19.4H66.22V25.376H72.52C73.624 25.376 74.512 25.112 75.184 24.584C75.856 24.032 76.192 23.3 76.192 22.388C76.192 21.476 75.856 20.756 75.184 20.228C74.512 19.676 73.624 19.4 72.52 19.4ZM73.024 35.96C74.224 35.96 75.184 35.672 75.904 35.096C76.624 34.496 76.984 33.692 76.984 32.684C76.984 31.724 76.624 30.944 75.904 30.344C75.184 29.744 74.224 29.444 73.024 29.444H66.22V35.96H73.024Z" fill="black"/>
<path d="M85.8906 15.08H97.7346C100.255 15.08 102.307 15.728 103.891 17.024C105.475 18.296 106.267 19.952 106.267 21.992C106.267 23.096 105.991 24.104 105.439 25.016C104.887 25.928 104.131 26.684 103.171 27.284C104.371 27.86 105.331 28.652 106.051 29.66C106.771 30.644 107.131 31.748 107.131 32.972C107.131 35.156 106.315 36.92 104.683 38.264C103.075 39.608 100.951 40.28 98.3106 40.28H85.8906V15.08ZM97.4106 19.4H91.1106V25.376H97.4106C98.5146 25.376 99.4026 25.112 100.075 24.584C100.747 24.032 101.083 23.3 101.083 22.388C101.083 21.476 100.747 20.756 100.075 20.228C99.4026 19.676 98.5146 19.4 97.4106 19.4ZM97.9146 35.96C99.1146 35.96 100.075 35.672 100.795 35.096C101.515 34.496 101.875 33.692 101.875 32.684C101.875 31.724 101.515 30.944 100.795 30.344C100.075 29.744 99.1146 29.444 97.9146 29.444H91.1106V35.96H97.9146Z" fill="black"/>
<path d="M127.269 37.94C126.117 38.876 124.929 39.56 123.705 39.992C122.505 40.424 121.161 40.64 119.673 40.64C118.257 40.64 116.925 40.388 115.677 39.884C114.453 39.38 113.385 38.696 112.473 37.832C111.585 36.968 110.877 35.948 110.349 34.772C109.845 33.572 109.593 32.288 109.593 30.92C109.593 29.576 109.833 28.316 110.313 27.14C110.817 25.94 111.501 24.908 112.365 24.044C113.229 23.156 114.249 22.46 115.425 21.956C116.625 21.452 117.897 21.2 119.241 21.2C120.561 21.2 121.785 21.464 122.913 21.992C124.065 22.496 125.049 23.192 125.865 24.08C126.705 24.968 127.353 26.036 127.809 27.284C128.289 28.508 128.529 29.84 128.529 31.28V32.576H114.561C114.897 33.752 115.545 34.7 116.505 35.42C117.465 36.14 118.593 36.5 119.889 36.5C120.705 36.5 121.473 36.368 122.193 36.104C122.913 35.84 123.525 35.468 124.029 34.988L127.269 37.94ZM119.133 25.268C118.005 25.268 117.033 25.616 116.217 26.312C115.401 26.984 114.837 27.896 114.525 29.048H123.705C123.393 27.944 122.817 27.044 121.977 26.348C121.161 25.628 120.213 25.268 119.133 25.268Z" fill="black"/>
<path d="M129.715 36.284L132.703 32.54C134.167 33.812 135.571 34.748 136.915 35.348C138.283 35.924 139.723 36.212 141.235 36.212C142.795 36.212 144.043 35.924 144.979 35.348C145.915 34.772 146.383 34.004 146.383 33.044C146.383 32.18 146.059 31.508 145.411 31.028C144.787 30.548 143.731 30.188 142.243 29.948L137.239 29.084C135.079 28.724 133.435 27.968 132.307 26.816C131.203 25.664 130.651 24.176 130.651 22.352C130.651 20 131.539 18.14 133.315 16.772C135.115 15.404 137.539 14.72 140.587 14.72C142.411 14.72 144.247 15.032 146.095 15.656C147.967 16.28 149.599 17.144 150.991 18.248L148.183 22.136C146.839 21.104 145.519 20.348 144.223 19.868C142.927 19.364 141.595 19.112 140.227 19.112C138.835 19.112 137.719 19.376 136.879 19.904C136.039 20.408 135.619 21.092 135.619 21.956C135.619 22.724 135.895 23.324 136.447 23.756C136.999 24.188 137.923 24.5 139.219 24.692L143.971 25.484C146.467 25.892 148.339 26.696 149.587 27.896C150.859 29.072 151.495 30.632 151.495 32.576C151.495 35.024 150.523 36.98 148.579 38.444C146.659 39.908 144.091 40.64 140.875 40.64C138.859 40.64 136.867 40.256 134.899 39.488C132.955 38.72 131.227 37.652 129.715 36.284Z" fill="black"/>
<path d="M154.297 40.28V15.08L159.229 14V23C159.949 22.4 160.741 21.944 161.605 21.632C162.493 21.32 163.453 21.164 164.485 21.164C166.645 21.164 168.421 21.86 169.813 23.252C171.205 24.644 171.901 26.432 171.901 28.616V40.28H166.969V29.336C166.969 28.16 166.609 27.212 165.889 26.492C165.193 25.772 164.257 25.412 163.081 25.412C162.265 25.412 161.521 25.58 160.849 25.916C160.201 26.228 159.661 26.684 159.229 27.284V40.28H154.297Z" fill="black"/>
<path d="M174.773 30.92C174.773 29.552 175.025 28.28 175.529 27.104C176.057 25.904 176.765 24.872 177.653 24.008C178.565 23.12 179.633 22.424 180.857 21.92C182.081 21.416 183.389 21.164 184.781 21.164C186.173 21.164 187.481 21.416 188.705 21.92C189.929 22.424 190.985 23.12 191.873 24.008C192.785 24.872 193.493 25.904 193.997 27.104C194.525 28.28 194.789 29.552 194.789 30.92C194.789 32.288 194.525 33.572 193.997 34.772C193.493 35.948 192.785 36.968 191.873 37.832C190.985 38.696 189.929 39.38 188.705 39.884C187.481 40.388 186.173 40.64 184.781 40.64C183.389 40.64 182.081 40.388 180.857 39.884C179.633 39.38 178.565 38.696 177.653 37.832C176.765 36.968 176.057 35.948 175.529 34.772C175.025 33.572 174.773 32.288 174.773 30.92ZM184.781 36.356C186.221 36.356 187.445 35.828 188.453 34.772C189.461 33.716 189.965 32.432 189.965 30.92C189.965 29.384 189.461 28.088 188.453 27.032C187.445 25.976 186.221 25.448 184.781 25.448C183.341 25.448 182.117 25.976 181.109 27.032C180.101 28.088 179.597 29.384 179.597 30.92C179.597 32.432 180.101 33.716 181.109 34.772C182.117 35.828 183.341 36.356 184.781 36.356Z" fill="black"/>
<path d="M197.821 47.804V21.524H202.681V23.072C203.425 22.472 204.253 22.028 205.165 21.74C206.077 21.428 207.025 21.272 208.009 21.272C209.329 21.272 210.565 21.524 211.717 22.028C212.893 22.532 213.913 23.216 214.777 24.08C215.641 24.944 216.313 25.964 216.793 27.14C217.297 28.316 217.549 29.576 217.549 30.92C217.549 32.264 217.297 33.524 216.793 34.7C216.289 35.876 215.605 36.896 214.741 37.76C213.877 38.624 212.845 39.308 211.645 39.812C210.469 40.292 209.209 40.532 207.865 40.532C206.953 40.532 206.053 40.412 205.165 40.172C204.301 39.908 203.497 39.536 202.753 39.056V47.804H197.821ZM207.217 25.484C206.329 25.484 205.501 25.64 204.733 25.952C203.965 26.24 203.305 26.672 202.753 27.248V34.628C203.281 35.156 203.929 35.576 204.697 35.888C205.489 36.2 206.329 36.356 207.217 36.356C208.753 36.356 210.049 35.84 211.105 34.808C212.161 33.752 212.689 32.456 212.689 30.92C212.689 29.384 212.149 28.1 211.069 27.068C210.013 26.012 208.729 25.484 207.217 25.484Z" fill="black"/>
</svg>
