<svg width="28" height="28" viewBox="0 0 28 28" fill="none" xmlns="http://www.w3.org/2000/svg">
<path fill-rule="evenodd" clip-rule="evenodd" d="M14.0625 0.125C17.7258 0.125 21.2391 1.58024 23.8294 4.17059C26.4198 6.76093 27.875 10.2742 27.875 13.9375C27.875 17.6008 26.4198 21.1141 23.8294 23.7044C21.2391 26.2948 17.7258 27.75 14.0625 27.75C10.3992 27.75 6.88593 26.2948 4.29559 23.7044C1.70524 21.1141 0.25 17.6008 0.25 13.9375C0.25 10.2742 1.70524 6.76093 4.29559 4.17059C6.88593 1.58024 10.3992 0.125 14.0625 0.125ZM24.4622 8.625C23.0994 5.97514 20.7802 3.94238 17.9746 2.9385C18.9181 4.7235 19.6003 6.636 19.9998 8.625H24.4622ZM25.699 14.9894C25.733 14.6398 25.75 14.2887 25.75 13.9375C25.7479 12.8591 25.5955 11.7863 25.2974 10.75H20.3206C20.3886 11.4534 20.4375 12.161 20.4375 12.875C20.4331 14.3027 20.2865 15.7264 19.9998 17.125H25.2974C25.4992 16.4259 25.6331 15.7119 25.7011 14.9894H25.699ZM18.1871 14.9894L18.1999 14.881C18.2724 14.2148 18.31 13.5452 18.3125 12.875C18.2982 12.1642 18.2443 11.4548 18.151 10.75H9.974C9.87991 11.4547 9.82599 12.1642 9.8125 12.875C9.81769 14.3057 9.98378 15.7314 10.3076 17.125H17.8174C17.981 16.4195 18.1042 15.7076 18.1871 14.9894ZM17.7791 8.625C17.2785 6.3775 16.3749 4.23924 15.1123 2.31375C14.7638 2.284 14.4152 2.25 14.0625 2.25C13.8411 2.25108 13.6199 2.26172 13.3995 2.28188L13.0127 2.31375L13 2.335C11.744 4.25486 10.8448 6.38569 10.3459 8.625H17.7791ZM8.12525 8.625C8.53286 6.63737 9.22418 4.71869 10.178 2.92788C7.36022 3.92832 5.03011 5.96584 3.66275 8.625H8.12525ZM2.82763 10.75C2.5299 11.7864 2.37756 12.8592 2.375 13.9375C2.37756 15.0158 2.5299 16.0886 2.82763 17.125H8.12525C7.83715 15.7266 7.6905 14.3028 7.6875 12.875C7.6875 12.161 7.73637 11.4534 7.80437 10.75H2.82763ZM8.67988 19.25H3.66488C4.46815 20.8191 5.61503 22.1867 7.02012 23.2511C8.42521 24.3155 10.0523 25.0492 11.7803 25.3976C10.4202 23.5301 9.37308 21.4538 8.67988 19.25ZM14.0625 24.8685C15.4213 23.1879 16.4835 21.2878 17.2032 19.25H10.9218C11.6416 21.2878 12.7037 23.1879 14.0625 24.8685ZM19.4451 19.25C18.7519 21.4538 17.7047 23.5301 16.3448 25.3976C18.0726 25.0489 19.6996 24.3151 21.1046 23.2507C22.5096 22.1864 23.6566 20.8189 24.4601 19.25H19.4451Z" fill="currentColor"/>
</svg>
