<svg width="37" height="29" viewBox="0 0 37 29" fill="none" xmlns="http://www.w3.org/2000/svg">
<path d="M24.2477 13.9411L16.1852 8.56611C16.084 8.49864 15.9664 8.45991 15.845 8.45403C15.7235 8.44815 15.6027 8.47535 15.4955 8.53273C15.3883 8.59011 15.2986 8.67552 15.2361 8.77984C15.1736 8.88417 15.1406 9.0035 15.1406 9.12511V19.8751C15.1406 19.9967 15.1736 20.1161 15.2361 20.2204C15.2986 20.3247 15.3883 20.4101 15.4955 20.4675C15.6027 20.5249 15.7235 20.5521 15.845 20.5462C15.9664 20.5403 16.084 20.5016 16.1852 20.4341L24.2477 15.0591C24.3397 14.9978 24.4152 14.9146 24.4674 14.8171C24.5196 14.7196 24.5469 14.6107 24.5469 14.5001C24.5469 14.3895 24.5196 14.2806 24.4674 14.1831C24.4152 14.0856 24.3397 14.0025 24.2477 13.9411ZM16.4844 18.6197V10.3805L22.6639 14.5001L16.4844 18.6197ZM35.7101 4.8933C35.5777 4.37855 35.3249 3.90265 34.9723 3.50488C34.6198 3.1071 34.1778 2.79886 33.6827 2.60557C28.0067 0.424158 18.8816 0.457416 18.5042 0.459264C18.1189 0.457081 8.99347 0.423991 3.31714 2.6054C2.8221 2.79873 2.38012 3.107 2.02767 3.50477C1.67523 3.90254 1.42241 4.37842 1.29009 4.89314C0.865465 6.5231 0.359375 9.51312 0.359375 14.5001C0.359375 19.4873 0.865465 22.4771 1.28992 24.1071C1.42228 24.6218 1.67514 25.0977 2.02765 25.4955C2.38016 25.8933 2.8222 26.2015 3.3173 26.3948C8.99331 28.5761 18.1184 28.5431 18.4958 28.5409C18.5146 28.5409 18.5546 28.5413 18.6146 28.5413C19.7707 28.5413 28.2857 28.4689 33.6829 26.3948C34.1779 26.2015 34.6199 25.8932 34.9723 25.4954C35.3248 25.0977 35.5776 24.6218 35.7099 24.1071C36.1345 22.4771 36.6406 19.4871 36.6406 14.5001C36.6406 9.51295 36.1345 6.5231 35.7101 4.89314V4.8933ZM34.4097 23.7685C34.3314 24.0766 34.1809 24.3617 33.9707 24.6003C33.7605 24.8388 33.4966 25.024 33.2008 25.1404C27.763 27.2301 18.5966 27.1987 18.4958 27.1972C18.4034 27.1972 9.23703 27.2301 3.79921 25.1404C3.50337 25.0239 3.23947 24.8387 3.02928 24.6002C2.81909 24.3616 2.66864 24.0765 2.59034 23.7683C2.18553 22.2144 1.70312 19.345 1.70312 14.5001C1.70312 9.65539 2.1857 6.78581 2.59034 5.23176C2.66864 4.92361 2.81909 4.63851 3.02928 4.39996C3.23947 4.16141 3.50337 3.97626 3.79921 3.85979C9.2372 1.77009 18.4038 1.80335 18.5042 1.80301C18.5959 1.80184 27.763 1.76992 33.2008 3.85979C33.4966 3.9763 33.7605 4.16148 33.9707 4.40006C34.1809 4.63863 34.3314 4.92376 34.4097 5.23193C34.8145 6.78581 35.2969 9.65522 35.2969 14.5001C35.2969 19.3448 34.8143 22.2144 34.4097 23.7685Z" fill="currentColor"/>
</svg>
